<svg width="59" height="24" viewBox="0 0 59 24" fill="none" xmlns="http://www.w3.org/2000/svg">
<path d="M26.424 0.535999V23H20.952V9.528L15.928 23H11.512L6.456 9.496V23H0.984V0.535999H7.448L13.752 16.088L19.992 0.535999H26.424ZM43.383 23L35.831 13.08V23H30.359V0.535999H35.831V10.392L43.319 0.535999H49.751L41.047 11.544L50.071 23H43.383ZM55.2315 23.256C54.2715 23.256 53.4822 22.9787 52.8635 22.424C52.2662 21.848 51.9675 21.144 51.9675 20.312C51.9675 19.4587 52.2662 18.744 52.8635 18.168C53.4822 17.592 54.2715 17.304 55.2315 17.304C56.1702 17.304 56.9382 17.592 57.5355 18.168C58.1542 18.744 58.4635 19.4587 58.4635 20.312C58.4635 21.144 58.1542 21.848 57.5355 22.424C56.9382 22.9787 56.1702 23.256 55.2315 23.256Z" fill="white"/>
</svg>
