<svg xmlns="http://www.w3.org/2000/svg" xmlns:xlink="http://www.w3.org/1999/xlink" width="512" zoomAndPan="magnify" viewBox="0 0 384 383.999986" height="512" preserveAspectRatio="xMidYMid meet" version="1.0"><defs><g/><clipPath id="e79f285fd9"><path d="M 4.03125 4.03125 L 379.96875 4.03125 L 379.96875 379.96875 L 4.03125 379.96875 Z M 4.03125 4.03125 " clip-rule="nonzero"/></clipPath><clipPath id="5cb1f453d7"><path d="M 79.03125 4.03125 L 304.96875 4.03125 C 346.390625 4.03125 379.96875 37.609375 379.96875 79.03125 L 379.96875 304.96875 C 379.96875 346.390625 346.390625 379.96875 304.96875 379.96875 L 79.03125 379.96875 C 37.609375 379.96875 4.03125 346.390625 4.03125 304.96875 L 4.03125 79.03125 C 4.03125 37.609375 37.609375 4.03125 79.03125 4.03125 " clip-rule="nonzero"/></clipPath></defs><g clip-path="url(#e79f285fd9)"><g clip-path="url(#5cb1f453d7)"><path fill="#6c3ed4" d="M 4.03125 4.03125 L 379.96875 4.03125 L 379.96875 379.96875 L 4.03125 379.96875 Z M 4.03125 4.03125 " fill-opacity="1" fill-rule="nonzero"/></g></g><g fill="#ffffff" fill-opacity="1"><g transform="translate(26.253087, 254.854808)"><g><path d="M 154.640625 -126.671875 L 154.640625 0 L 123.796875 0 L 123.796875 -75.96875 L 95.453125 0 L 70.5625 0 L 42.046875 -76.15625 L 42.046875 0 L 11.1875 0 L 11.1875 -126.671875 L 47.640625 -126.671875 L 83.1875 -38.984375 L 118.375 -126.671875 Z M 154.640625 -126.671875 "/></g></g></g><g fill="#ffffff" fill-opacity="1"><g transform="translate(186.49817, 254.854808)"><g><path d="M 84.625 0 L 42.046875 -55.9375 L 42.046875 0 L 11.1875 0 L 11.1875 -126.671875 L 42.046875 -126.671875 L 42.046875 -71.09375 L 84.265625 -126.671875 L 120.546875 -126.671875 L 71.453125 -64.609375 L 122.34375 0 Z M 84.625 0 "/></g></g></g><g fill="#ffffff" fill-opacity="1"><g transform="translate(306.862434, 254.854808)"><g><path d="M 25.625 1.4375 C 20.207031 1.4375 15.785156 -0.15625 12.359375 -3.34375 C 8.929688 -6.53125 7.21875 -10.46875 7.21875 -15.15625 C 7.21875 -19.96875 8.929688 -24 12.359375 -27.25 C 15.785156 -30.5 20.207031 -32.125 25.625 -32.125 C 30.914062 -32.125 35.273438 -30.5 38.703125 -27.25 C 42.128906 -24 43.84375 -19.96875 43.84375 -15.15625 C 43.84375 -10.46875 42.128906 -6.53125 38.703125 -3.34375 C 35.273438 -0.15625 30.914062 1.4375 25.625 1.4375 Z M 25.625 1.4375 "/></g></g></g></svg>